<svg width="24" height="24" viewBox="0 0 24 24" fill="none" xmlns="http://www.w3.org/2000/svg">
<g clip-path="url(#clip0_33_92)">
<path d="M19.7895 0H4.21052C1.88512 0 0 1.88512 0 4.21052V19.7895C0 22.1149 1.88512 24 4.21052 24H19.7895C22.1149 24 24 22.1149 24 19.7895V4.21052C24 1.88512 22.1149 0 19.7895 0Z" fill="white"/>
<path d="M24 16.5175V18.6972C23.8631 18.7104 23.7225 18.7171 23.5781 18.7171C21.0014 18.7171 19.5508 16.5709 19.4882 13.8853C19.4864 13.7815 19.4871 13.6783 19.4894 13.5759C19.4908 13.512 19.4933 13.4483 19.4965 13.3848C19.4981 13.3509 19.4997 13.319 19.5023 13.2835C19.5048 13.2479 19.5074 13.2124 19.5104 13.1769C19.6031 11.9911 19.9849 10.936 20.6149 10.1553C21.0063 9.67067 21.4766 9.30144 22.0099 9.0545C22.4784 8.81865 23.1368 8.68848 23.6735 8.68848H23.6967C23.7984 8.68848 23.8995 8.69187 24 8.69858V9.29827C23.8934 9.26905 23.7792 9.25337 23.6578 9.25135C22.5723 9.27373 21.9255 10.5739 21.8449 12.3754H24V12.8831H21.7962L21.7955 12.8836C21.6962 14.6388 22.6568 16.1222 24 16.5175Z" fill="#0072C6"/>
<path d="M19.5964 5.73371L19.6154 5.72956V5.58301H15.7503L12.1615 14.0179L8.57269 5.58301H4.40763V5.72956L4.42634 5.73371C5.1318 5.89295 5.48998 6.13041 5.48998 6.98682V17.0129C5.48998 17.8693 5.13042 18.1068 4.42495 18.266L4.40625 18.2702V18.4172H7.23211V18.2707L7.21343 18.2665C6.50794 18.1073 6.14977 17.8698 6.14977 17.0134V7.5684L10.76 18.4172H11.0215L15.766 7.26584V17.261C15.7056 17.9374 15.3506 18.1463 14.7118 18.2905L14.6929 18.2949V18.4403H19.6154V18.2949L19.5964 18.2905C18.957 18.1463 18.5935 17.9374 18.533 17.261L18.5298 6.98682H18.533C18.533 6.13041 18.8912 5.89295 19.5964 5.73371Z" fill="#0072C6"/>
</g>
<defs>
<clipPath id="clip0_33_92">
<rect width="24" height="24" fill="white"/>
</clipPath>
</defs>
</svg>
